<svg width="21" height="18" viewBox="0 0 21 18" fill="none" xmlns="http://www.w3.org/2000/svg">
<g id="Vector">
<path id="Vector_2" fill-rule="evenodd" clip-rule="evenodd" d="M1.46301 3.36151V14.1076C1.46501 14.6905 1.69856 15.2486 2.11225 15.6592C2.52593 16.0698 3.08583 16.2992 3.66869 16.2969H16.9028C17.4856 16.2992 18.0455 16.0698 18.4592 15.6592C18.8729 15.2486 19.1065 14.6905 19.1085 14.1076V3.36151C19.1065 2.77865 18.8729 2.22047 18.4592 1.80986C18.0455 1.39925 17.4856 1.16987 16.9028 1.17221H3.66869C3.08583 1.16987 2.52593 1.39925 2.11225 1.80986C1.69856 2.22047 1.46501 2.77865 1.46301 3.36151Z" stroke="#B89460" stroke-width="2" stroke-linecap="round" stroke-linejoin="round"/>
<path id="Vector-2" d="M19.1085 7.34608C19.6607 7.34608 20.1085 6.89837 20.1085 6.34608C20.1085 5.7938 19.6607 5.34608 19.1085 5.34608V7.34608ZM1.46301 5.34608C0.910728 5.34608 0.463013 5.7938 0.463013 6.34608C0.463013 6.89837 0.910728 7.34608 1.46301 7.34608V5.34608ZM11.3886 11.2274C11.9409 11.2274 12.3886 10.7797 12.3886 10.2274C12.3886 9.67513 11.9409 9.22741 11.3886 9.22741V11.2274ZM1.46301 9.22741C0.910728 9.22741 0.463013 9.67513 0.463013 10.2274C0.463013 10.7797 0.910728 11.2274 1.46301 11.2274V9.22741ZM15.7999 11.2274C16.3522 11.2274 16.7999 10.7797 16.7999 10.2274C16.7999 9.67513 16.3522 9.22741 15.7999 9.22741V11.2274ZM14.6971 9.22741C14.1448 9.22741 13.6971 9.67513 13.6971 10.2274C13.6971 10.7797 14.1448 11.2274 14.6971 11.2274V9.22741ZM19.1085 5.34608H1.46301V7.34608H19.1085V5.34608ZM11.3886 9.22741H1.46301V11.2274H11.3886V9.22741ZM15.7999 9.22741H14.6971V11.2274H15.7999V9.22741Z" fill="#B89460"/>
</g>
</svg>
