<svg width="20" height="21" viewBox="0 0 20 21" fill="none" xmlns="http://www.w3.org/2000/svg">
<g id="Vector">
<path id="Vector-5" d="M5.58861 6.22911C5.03632 6.22911 4.58861 6.67682 4.58861 7.22911C4.58861 7.78139 5.03632 8.22911 5.58861 8.22911V6.22911ZM14.4113 8.22911C14.9636 8.22911 15.4113 7.78139 15.4113 7.22911C15.4113 6.67682 14.9636 6.22911 14.4113 6.22911V8.22911ZM6.69145 10.3041C6.13917 10.3041 5.69145 10.7518 5.69145 11.3041C5.69145 11.8563 6.13917 12.3041 6.69145 12.3041V10.3041ZM13.3085 12.3041C13.8608 12.3041 14.3085 11.8563 14.3085 11.3041C14.3085 10.7518 13.8608 10.3041 13.3085 10.3041V12.3041ZM5.79405 1.70813V0.708103L5.78676 0.708156L5.79405 1.70813ZM14.2072 1.70813L14.2147 0.70813H14.2072V1.70813ZM18.8227 6.393L17.8227 6.38565V6.393H18.8227ZM18.8227 12.0811H17.8227L17.8227 12.0885L18.8227 12.0811ZM17.4846 15.3798L16.7723 14.6779V14.6779L17.4846 15.3798ZM14.2059 16.766V17.766L14.2132 17.766L14.2059 16.766ZM5.79405 16.766V15.766C5.62284 15.766 5.45449 15.81 5.30514 15.8937L5.79405 16.766ZM1.17725 19.3536H0.17725C0.17725 19.7086 0.365447 20.0369 0.671738 20.2164C0.978029 20.3958 1.3565 20.3995 1.66616 20.2259L1.17725 19.3536ZM1.17725 6.393H2.17728L2.17722 6.38565L1.17725 6.393ZM2.51535 3.09436L1.80309 2.39244L1.80309 2.39244L2.51535 3.09436ZM5.58861 8.22911H14.4113V6.22911H5.58861V8.22911ZM6.69145 12.3041H13.3085V10.3041H6.69145V12.3041ZM5.79405 2.70813H14.2072V0.70813H5.79405V2.70813ZM14.1996 2.7081C16.2155 2.72334 17.8375 4.36971 17.8227 6.38565L19.8227 6.40034C19.8456 3.28003 17.335 0.731752 14.2147 0.708158L14.1996 2.7081ZM17.8227 6.393V12.0811H19.8227V6.393H17.8227ZM17.8227 12.0885C17.8298 13.0567 17.452 13.9882 16.7723 14.6779L18.1969 16.0817C19.2489 15.0142 19.8337 13.5725 19.8227 12.0738L17.8227 12.0885ZM16.7723 14.6779C16.0927 15.3675 15.1669 15.759 14.1986 15.766L14.2132 17.766C15.7119 17.755 17.1449 17.1492 18.1969 16.0817L16.7723 14.6779ZM14.2059 15.766H5.79405V17.766H14.2059V15.766ZM5.30514 15.8937L0.688334 18.4812L1.66616 20.2259L6.28297 17.6383L5.30514 15.8937ZM2.17725 19.3536V6.393H0.17725V19.3536H2.17725ZM2.17722 6.38565C2.17011 5.41738 2.54795 4.48595 3.22761 3.79627L1.80309 2.39244C0.751094 3.45994 0.16627 4.90163 0.177277 6.40034L2.17722 6.38565ZM3.22761 3.79627C3.90727 3.10659 4.83308 2.71516 5.80134 2.7081L5.78676 0.708156C4.28806 0.719082 2.85508 1.32494 1.80309 2.39244L3.22761 3.79627Z" fill="#B89460"/>
</g>
</svg>
