<svg width="22" height="20" viewBox="0 0 22 20" fill="none" xmlns="http://www.w3.org/2000/svg">
<g id="Vector">
<path id="Vector_642" fill-rule="evenodd" clip-rule="evenodd" d="M20.4055 5.03189L17.7182 1.00098H14.3591L15.7027 5.03189L11 18.4682L20.4055 5.03189Z" stroke="#B89460" stroke-width="2" stroke-linecap="round" stroke-linejoin="round"/>
<path id="Vector_642-2" d="M0.762554 4.47718C0.456202 4.93671 0.580376 5.55758 1.0399 5.86393C1.49943 6.17029 2.1203 6.04611 2.42665 5.58658L0.762554 4.47718ZM4.28188 1.00097V0.00097394C3.94752 0.00097394 3.63529 0.168075 3.44983 0.446274L4.28188 1.00097ZM7.64097 2.00097C8.19325 2.00097 8.64097 1.55326 8.64097 1.00097C8.64097 0.448689 8.19325 0.00097394 7.64097 0.00097394V2.00097ZM2.41384 4.45841C2.09712 4.00596 1.47359 3.89593 1.02114 4.21264C0.568695 4.52935 0.45866 5.15288 0.775374 5.60533L2.41384 4.45841ZM11.0001 18.4682L10.1808 19.0417C10.4673 19.4509 11.0117 19.586 11.4562 19.3581C11.9007 19.1303 12.1089 18.6093 11.9439 18.1379L11.0001 18.4682ZM7.24119 4.70152C7.05874 4.18024 6.48826 3.90557 5.96698 4.08801C5.44571 4.27046 5.17103 4.84094 5.35348 5.36222L7.24119 4.70152ZM1.59461 4.03181C1.04232 4.03181 0.594606 4.47953 0.594606 5.03181C0.594606 5.5841 1.04232 6.03181 1.59461 6.03181V4.03181ZM6.29733 6.03181C6.84962 6.03181 7.29733 5.5841 7.29733 5.03181C7.29733 4.47953 6.84962 4.03181 6.29733 4.03181V6.03181ZM8.58967 1.31723C8.76432 0.793288 8.48116 0.226969 7.95721 0.0523208C7.43327 -0.122327 6.86695 0.160833 6.6923 0.684776L8.58967 1.31723ZM5.34867 4.71569C5.17402 5.23963 5.45718 5.80595 5.98112 5.9806C6.50507 6.15524 7.07139 5.87208 7.24603 5.34814L5.34867 4.71569ZM7.64097 0.000946045C7.08869 0.000946045 6.64097 0.448661 6.64097 1.00095C6.64097 1.55323 7.08869 2.00095 7.64097 2.00095V0.000946045ZM14.3592 2.00095C14.9114 2.00095 15.3592 1.55323 15.3592 1.00095C15.3592 0.448661 14.9114 0.000946045 14.3592 0.000946045V2.00095ZM6.29735 4.03181C5.74507 4.03181 5.29735 4.47953 5.29735 5.03181C5.29735 5.5841 5.74507 6.03181 6.29735 6.03181V4.03181ZM20.4055 6.03181C20.9578 6.03181 21.4055 5.5841 21.4055 5.03181C21.4055 4.47953 20.9578 4.03181 20.4055 4.03181V6.03181ZM2.42665 5.58658L5.11393 1.55567L3.44983 0.446274L0.762554 4.47718L2.42665 5.58658ZM4.28188 2.00097H7.64097V0.00097394H4.28188V2.00097ZM0.775374 5.60533L10.1808 19.0417L11.8193 17.8948L2.41384 4.45841L0.775374 5.60533ZM11.9439 18.1379L7.24119 4.70152L5.35348 5.36222L10.0562 18.7986L11.9439 18.1379ZM1.59461 6.03181H6.29733V4.03181H1.59461V6.03181ZM6.6923 0.684776L5.34867 4.71569L7.24603 5.34814L8.58967 1.31723L6.6923 0.684776ZM7.64097 2.00095H14.3592V0.000946045H7.64097V2.00095ZM6.29735 6.03181H20.4055V4.03181H6.29735V6.03181Z" fill="#B89460"/>
</g>
</svg>
