<svg width="81" height="81" viewBox="0 0 81 81" fill="none" xmlns="http://www.w3.org/2000/svg">
<g id="logo">
<circle id="Ellipse" cx="40.5" cy="40.5" r="35" stroke="#CDB490" stroke-width="2"/>
<path id="Union" fill-rule="evenodd" clip-rule="evenodd" d="M61.0239 14.6255V58.9899L46.3604 37.3211L38.0222 50.1131L35.6598 46.5814L29.681 55.7474H27.1838V33.9102L22.2821 26.5822V63.0543L19.9761 66.3743V22.0099L34.6397 43.6786L42.9779 30.8867L45.3403 34.4184L51.3191 25.2523H53.8163V47.0897L58.7179 54.4175V17.9455L61.0239 14.6255ZM52.8094 45.5845L46.8152 36.6233L52.8094 27.4274V45.5845ZM44.8768 35.1289L43.9873 33.8144L36.1232 45.8709L37.0127 47.1853L44.8768 35.1289ZM34.1848 44.3765L28.1907 35.4153V53.5724L34.1848 44.3765Z" fill="#CDB490"/>
</g>
</svg>
