<svg width="26" height="21" viewBox="0 0 26 21" fill="none" xmlns="http://www.w3.org/2000/svg">
<g id="Vector">
<path id="Vector_2" fill-rule="evenodd" clip-rule="evenodd" d="M8.90015 16.5934C8.90832 17.7116 8.24101 18.7243 7.21025 19.1578C6.17949 19.5914 4.98896 19.3603 4.19535 18.5725C3.40174 17.7847 3.16186 16.5959 3.58789 15.562C4.01391 14.528 5.02165 13.8533 6.1399 13.8533C6.86929 13.8506 7.56987 14.1378 8.08752 14.6517C8.60517 15.1655 8.89748 15.864 8.90015 16.5934V16.5934Z" stroke="#B89460" stroke-width="2" stroke-linecap="round" stroke-linejoin="round"/>
<path id="Vector-2" fill-rule="evenodd" clip-rule="evenodd" d="M22.0508 16.5934C22.059 17.7116 21.3916 18.7243 20.3609 19.1578C19.3301 19.5914 18.1396 19.3603 17.346 18.5725C16.5524 17.7847 16.3125 16.5959 16.7385 15.562C17.1645 14.528 18.1723 13.8533 19.2905 13.8533C20.0199 13.8506 20.7205 14.1378 21.2382 14.6517C21.7558 15.1655 22.0481 15.864 22.0508 16.5934Z" stroke="#B89460" stroke-width="2" stroke-linecap="round" stroke-linejoin="round"/>
<path id="Vector-3" d="M16.2065 17.5934C16.7588 17.5934 17.2065 17.1457 17.2065 16.5934C17.2065 16.0411 16.7588 15.5934 16.2065 15.5934V17.5934ZM8.89623 15.5934C8.34394 15.5934 7.89623 16.0411 7.89623 16.5934C7.89623 17.1457 8.34394 17.5934 8.89623 17.5934V15.5934ZM15.2065 16.5935C15.2065 17.1457 15.6542 17.5935 16.2065 17.5935C16.7588 17.5935 17.2065 17.1457 17.2065 16.5935H15.2065ZM17.2065 9.95498C17.2065 9.4027 16.7588 8.95498 16.2065 8.95498C15.6542 8.95498 15.2065 9.4027 15.2065 9.95498H17.2065ZM16.2065 15.5934C15.6542 15.5934 15.2065 16.0411 15.2065 16.5934C15.2065 17.1457 15.6542 17.5934 16.2065 17.5934V15.5934ZM16.5292 17.5934C17.0814 17.5934 17.5292 17.1457 17.5292 16.5934C17.5292 16.0411 17.0814 15.5934 16.5292 15.5934V17.5934ZM22.0454 15.5935C21.4931 15.5958 21.0473 16.0455 21.0497 16.5977C21.052 17.15 21.5017 17.5958 22.0539 17.5934L22.0454 15.5935ZM24.9738 13.6429L25.9737 13.6382C25.9735 13.5792 25.968 13.5204 25.9573 13.4624L24.9738 13.6429ZM25.2805 9.77447C25.1808 9.23126 24.6596 8.87172 24.1164 8.97141C23.5732 9.07111 23.2137 9.59228 23.3134 10.1355L25.2805 9.77447ZM16.2052 3.05378C15.653 3.05378 15.2052 3.50149 15.2052 4.05378C15.2052 4.60606 15.653 5.05378 16.2052 5.05378V3.05378ZM20.8321 4.05378V5.05378C20.8387 5.05378 20.8453 5.05371 20.8519 5.05358L20.8321 4.05378ZM22.9259 4.90265L23.6363 4.19889V4.19889L22.9259 4.90265ZM23.755 7.00435L22.7554 6.97514C22.7533 7.04533 22.7587 7.11554 22.7714 7.1846L23.755 7.00435ZM23.3121 10.1352C23.4116 10.6784 23.9327 11.0381 24.4759 10.9385C25.0192 10.839 25.3789 10.3179 25.2793 9.77467L23.3121 10.1352ZM17.204 4.05383C17.204 3.50155 16.7563 3.05383 16.204 3.05383C15.6517 3.05383 15.204 3.50155 15.204 4.05383H17.204ZM15.204 9.95498C15.204 10.5073 15.6517 10.955 16.204 10.955C16.7563 10.955 17.204 10.5073 17.204 9.95498H15.204ZM15.204 4.0538C15.204 4.60608 15.6517 5.0538 16.204 5.0538C16.7563 5.0538 17.204 4.60608 17.204 4.0538H15.204ZM16.204 3.04549H17.204L17.2039 3.03813L16.204 3.04549ZM14.8276 1.68805V2.68807L14.8341 2.68803L14.8276 1.68805ZM2.40649 1.68805L2.39723 2.68805H2.40649V1.68805ZM1.4358 2.07966L0.735241 1.36606L0.735241 1.36606L1.4358 2.07966ZM1.02637 3.04297L0.0263672 3.03379V3.04297H1.02637ZM1.02637 15.2372H0.0263251L0.0264093 15.2464L1.02637 15.2372ZM1.4358 16.2005L2.13636 15.4869L2.13636 15.4869L1.4358 16.2005ZM2.40649 16.5921V15.5921L2.39723 15.5922L2.40649 16.5921ZM3.37951 17.5921C3.9318 17.5921 4.37951 17.1444 4.37951 16.5921C4.37951 16.0399 3.9318 15.5921 3.37951 15.5921V17.5921ZM16.2065 8.95498C15.6542 8.95498 15.2065 9.4027 15.2065 9.95498C15.2065 10.5073 15.6542 10.955 16.2065 10.955V8.95498ZM24.2982 10.955C24.8505 10.955 25.2982 10.5073 25.2982 9.95498C25.2982 9.4027 24.8505 8.95498 24.2982 8.95498V10.955ZM16.2065 15.5934H8.89623V17.5934H16.2065V15.5934ZM17.2065 16.5935V9.95498H15.2065V16.5935H17.2065ZM16.2065 17.5934H16.5292V15.5934H16.2065V17.5934ZM22.0539 17.5934C23.0983 17.589 24.0981 17.1697 24.8333 16.4279L23.4127 15.02C23.051 15.385 22.5592 15.5913 22.0454 15.5935L22.0539 17.5934ZM24.8333 16.4279C25.5684 15.6861 25.9787 14.6825 25.9737 13.6382L23.9738 13.6476C23.9762 14.1614 23.7744 14.6551 23.4127 15.02L24.8333 16.4279ZM25.9573 13.4624L25.2805 9.77447L23.3134 10.1355L23.9902 13.8234L25.9573 13.4624ZM16.2052 5.05378H20.8321V3.05378H16.2052V5.05378ZM20.8519 5.05358C21.3629 5.04348 21.8558 5.24329 22.2155 5.60641L23.6363 4.19889C22.8914 3.44685 21.8707 3.03305 20.8124 3.05397L20.8519 5.05358ZM22.2155 5.60641C22.5752 5.96954 22.7703 6.46423 22.7554 6.97514L24.7545 7.03356C24.7855 5.97545 24.3813 4.95093 23.6363 4.19889L22.2155 5.60641ZM22.7714 7.1846L23.3121 10.1352L25.2793 9.77467L24.7386 6.8241L22.7714 7.1846ZM15.204 4.05383V9.95498H17.204V4.05383H15.204ZM17.204 4.0538V3.04549H15.204V4.0538H17.204ZM17.2039 3.03813C17.1943 1.73143 16.1279 0.679602 14.8211 0.688068L14.8341 2.68803C15.037 2.68671 15.2025 2.84999 15.204 3.05284L17.2039 3.03813ZM14.8276 0.688047H2.40649V2.68805H14.8276V0.688047ZM2.41575 0.68809C1.78784 0.682276 1.18334 0.926152 0.735241 1.36606L2.13636 2.79325C2.20592 2.72496 2.29976 2.6871 2.39723 2.688L2.41575 0.68809ZM0.735241 1.36606C0.287146 1.80597 0.0321698 2.40588 0.0264093 3.03379L2.02633 3.05214C2.02722 2.95466 2.0668 2.86154 2.13636 2.79325L0.735241 1.36606ZM0.0263672 3.04297V15.2372H2.02637V3.04297H0.0263672ZM0.0264093 15.2464C0.0321698 15.8743 0.287146 16.4742 0.735242 16.9141L2.13636 15.4869C2.0668 15.4187 2.02722 15.3255 2.02633 15.2281L0.0264093 15.2464ZM0.73524 16.9141C1.18333 17.354 1.78784 17.5979 2.41575 17.5921L2.39723 15.5922C2.29976 15.5931 2.20592 15.5552 2.13636 15.4869L0.73524 16.9141ZM2.40649 17.5921H3.37951V15.5921H2.40649V17.5921ZM16.2065 10.955H24.2982V8.95498H16.2065V10.955Z" fill="#B89460"/>
</g>
</svg>
