<svg width="48" height="48" viewBox="0 0 48 48" fill="none" xmlns="http://www.w3.org/2000/svg">
<g id="icon/whatsapp2">
<path id="Vector" d="M42.9001 23.8741C42.9001 34.0741 34.5001 42.4741 24.3001 42.4741C20.9001 42.4741 17.5001 41.4741 14.7001 39.8741L5.9001 42.4741C5.5001 42.6741 5.1001 42.2741 5.1001 41.6741L7.7001 32.4741C6.3001 29.8741 5.7001 27.0741 5.7001 24.0741C5.7001 13.8741 13.9001 5.47412 24.3001 5.47412C34.7001 5.47412 42.9001 13.6741 42.9001 23.8741Z" stroke="white" stroke-width="4"/>
<path id="Vector_2" fill-rule="evenodd" clip-rule="evenodd" d="M31.7201 26.6436C31.3176 26.3194 30.8462 26.0913 30.342 25.9765C29.8378 25.8617 29.314 25.8634 28.8105 25.9813C28.0539 26.295 27.5651 27.4802 27.0763 28.0728C26.9732 28.2148 26.8217 28.3144 26.6503 28.353C26.4789 28.3915 26.2993 28.3662 26.1452 28.2819C23.3756 27.1989 21.054 25.2129 19.5577 22.6465C19.43 22.4863 19.3696 22.283 19.3892 22.0793C19.4087 21.8755 19.5067 21.6873 19.6624 21.5543C20.2076 21.0154 20.6079 20.348 20.8263 19.6138C20.8748 18.8039 20.6889 17.9973 20.2909 17.2899C19.9832 16.2983 19.3976 15.4153 18.6033 14.7453C18.1936 14.5613 17.7394 14.4996 17.2953 14.5677C16.8513 14.6357 16.4365 14.8306 16.101 15.1287C15.5184 15.6305 15.056 16.2563 14.7478 16.9601C14.4397 17.664 14.2935 18.4278 14.3202 19.1955C14.322 19.6266 14.3768 20.0559 14.4832 20.4736C14.7534 21.4775 15.1691 22.4365 15.7169 23.3204C16.1121 23.9975 16.5434 24.653 17.0088 25.2841C18.5213 27.357 20.4225 29.117 22.607 30.4664C23.7032 31.1521 24.8748 31.7096 26.0986 32.1279C27.3699 32.7033 28.7736 32.9241 30.1605 32.767C30.9508 32.6476 31.6995 32.3361 32.3408 31.86C32.9821 31.3838 33.4964 30.7576 33.8384 30.0364C34.0393 29.6008 34.1003 29.1137 34.013 28.6421C33.8035 27.6777 32.5116 27.1083 31.7201 26.6436Z" fill="white"/>
</g>
</svg>
